<svg xmlns="http://www.w3.org/2000/svg" viewBox="0 0 512 512">
  <!-- Medical cross with shield background for MediVault -->
  <defs>
    <linearGradient id="grad1" x1="0%" y1="0%" x2="100%" y2="100%">
      <stop offset="0%" style="stop-color:#4a90e2;stop-opacity:1" />
      <stop offset="100%" style="stop-color:#1e3a8a;stop-opacity:1" />
    </linearGradient>
  </defs>
  
  <!-- Shield background -->
  <path d="M256 16c-136.76 0-208 59.27-208 96v128c0 63.2 34.47 120.29 88.57 159.43L256 480l119.43-80.57C429.53 360.29 464 303.2 464 240V112c0-36.73-71.24-96-208-96z" 
        fill="url(#grad1)" stroke="#ffffff" stroke-width="10" />
  
  <!-- Medical cross -->
  <rect x="220" y="140" width="72" height="232" rx="8" fill="#ffffff"/>
  <rect x="140" y="220" width="232" height="72" rx="8" fill="#ffffff"/>
  
  <!-- Lock symbol for security -->
  <rect x="216" y="236" width="80" height="76" rx="8" fill="#ffd700"/>
  <path d="M232 236v-28a24 24 0 0 1 48 0v28" stroke="#1e3a8a" stroke-width="10" fill="none"/>
</svg>